<?xml version="1.0" encoding="UTF-8" standalone="no"?>
<!-- Created with Inkscape (http://www.inkscape.org/) -->
<svg xmlns:rdf="http://www.w3.org/1999/02/22-rdf-syntax-ns#" xmlns="http://www.w3.org/2000/svg" height="200" width="550" version="1.1" xmlns:cc="http://creativecommons.org/ns#" xmlns:dc="http://purl.org/dc/elements/1.1/">
<metadata>
<rdf:RDF>
<cc:Work rdf:about="">
<dc:format>image/svg+xml</dc:format>
<dc:type rdf:resource="http://purl.org/dc/dcmitype/StillImage"/>
<dc:title/>
</cc:Work>
</rdf:RDF>
</metadata>
<g transform="translate(-25,-247.375)" fill="#FFF">
<path d="m25,302.36,30,0,0,65,5,0v5h15v10h-20v-5h-5v-5h-5v-60h-20v-10"/>
<path d="m115,302.38,0,10,10,0,0-10-10,0zm-15,25,0,10,15,0,0,35-20,0,0,10,50,0,0-10-20,0,0-45-25,0z"/>
<path d="m155,302.38,0,80,10,0,0-5,5,0,0,5,25,0,0-5,5,0,0-10,5,0,0-25-5,0,0-10-5,0,0-5-25,0,0,5-5,0,0-30-10,0zm15,35,20,0,0,5,5,0,0,25-5,0,0,5-20,0,0-5-5,0,0-25,5,0,0-5z"/>
<path d="m365,312.38,0,25-5,0,0-5-20,0,0,5-5,0,0,5-5,0,0,30,5,0,0,5,5,0,0,5,20,0,0-5,5,0,0,5,10,0,0-70-10,0zm-20,30,15,0,0,5,5,0,0,20-5,0,0,5-15,0,0-5-5,0,0-20,5,0,0-5z"/>
<path d="m395,382.36,0-50,10,0,0,10,5,0,0-10,15,0,0,5,5,0,0,10-5,0,0-5-15,0,0,5-5,0,0,35z"/>
<path d="m475,367.36,5,0,0,10-5,0,0,5-20,0,0-5-10,0,0-10-5,0,0-20,5,0,0-10,10,0,0-5,20,0v5h5v10h-5v-5h-20v5h-5v20h5v5h20z"/>
<path d="m260,247.38,0,5-10,0,0,5-5,0,0,5-5,0,0,10-5,0,0,150,5,0,0,10,5,0,0,5,5,0,0,5,10,0,0,5,290,0,0-5,10,0,0-5,5,0,0-5,5,0,0-10,5,0,0-150-5,0,0-10-5,0,0-5-5,0,0-5-10,0,0-5-290,0zm95,10,100,0,0,5,5,0,0,5-5,0,0,5-100,0,0-5-5,0,0-5,5,0,0-5zm-95,30,10,0,0,5,5,0,0,10-5,0,0,5-10,0,0-5-5,0,0-10,5,0,0-5zm45,0,200,0,0,5,5,0,0,110-5,0,0,5-200,0,0-5-5,0,0-110,5,0,0-5zm235,0,10,0,0,5,5,0,0,10-5,0,0,5-10,0,0-5-5,0,0-10,5,0,0-5zm5,30,5,0,0,5,5,0,0,5-5,0,0,5-5,0,0-5-5,0,0-5,5,0,0-5zm-285,5,10,0,0,10,10,0,0,10-10,0,0,10-10,0,0-10-10,0,0-10,10,0,0-10zm270,10,5,0,0,5,5,0,0,5-5,0,0,5-5,0,0-5-5,0,0-5,5,0,0-5zm30,0,5,0,0,5,5,0,0,5-5,0,0,5-5,0,0-5-5,0,0-5,5,0,0-5zm-15,15,5,0,0,5,5,0,0,5-5,0,0,5-5,0,0-5-5,0,0-5,5,0,0-5z"/>
</g>
</svg>
