<?xml version="1.0" encoding="UTF-8" standalone="no"?>
<svg xmlns="http://www.w3.org/2000/svg" height="96pt" width="96pt" version="1.1" xmlns:xlink="http://www.w3.org/1999/xlink" viewBox="0 0 96 96">
 <g fill-rule="evenodd">
  <path d="m289.001465 425.008138l-19.999186 18.981934c-3.011068 4.007975-8.992513 4.007975-13.000489 1.017252l-20.996093-17.008463c-3.011068-2.990723-6.998698-4.007976-11.006674-1.993815-6.00179 3.98763-12.00358 6.00179-19.002278 7.995605-3.98763 0.996908-6.998698 5.004883-6.998698 8.992513l-2.990723 26.997884c0 5.004883-4.007975 9.012858-9.012858 9.012858h-27.994792c-5.004882 0-8.992513-4.007975-10.009765-9.012858l-2.990723-26.997884c0-3.98763-2.990722-7.995605-6.00179-8.992513-6.998698-1.993815-13.000488-4.007975-19.002279-7.995605-3.98763-2.014161-7.995605-0.996908-10.986328 1.993815l-21.016439 17.008463c-3.98763 2.990723-9.98942 2.990723-13.997396-1.017252l-19.002278-18.981934c-3.98763-4.007975-3.98763-10.009766-0.996908-14.017741l17.008464-20.996094c2.990722-2.990722 3.98763-6.998698 1.993815-10.986328-4.007975-6.00179-6.00179-12.00358-7.995606-18.005371-0.996907-4.007975-5.004882-6.998698-8.992513-6.998698l-27.018229-3.011067c-4.984538 0-8.992513-4.984538-8.992513-9.989421v-26.997884c0-6.001791 4.007975-10.009766 8.992513-10.009766l27.018229-2.990722c3.987631 0 7.995606-3.011068 8.992513-6.998698 1.993816-6.001791 3.987631-13.000489 7.995606-19.002279 1.993815-3.011068 0.996907-7.995605-0.996908-11.006673l-18.005371-20.996094c-2.990722-4.007975-2.990722-10.009766 0.996908-13.000488l19.002278-19.999186c4.007976-3.011068 10.009766-4.007976 13.997396 0l21.016439 17.008463c2.990723 2.990723 6.998698 2.990723 10.986328 0.996908 6.001791-3.011068 12.003581-6.001791 19.002279-8.015951 3.011068-0.996907 6.00179-3.98763 6.00179-7.995605l2.990723-26.997884c1.017252-6.001791 5.004883-9.989421 10.009765-9.989421h27.994792c5.004883 0 9.012858 3.98763 9.012858 9.989421l2.990723 26.997884c0 4.007975 3.011068 6.998698 6.998698 7.995605 6.998698 2.01416 13.000488 5.004883 19.002278 8.015951 3.011068 1.993815 7.995606 1.993815 11.006674-0.996908l20.996093-17.008463c4.007976-4.007976 9.989421-3.011068 13.000489 0l19.999186 19.999186c2.990723 2.990722 4.007975 8.992513 0 13.000488l-17.008464 20.996094c-2.990722 3.011068-2.990722 7.995605-0.996907 11.006673 3.011067 6.00179 6.00179 13.000488 7.995605 19.002279 1.017253 3.98763 4.007975 6.998698 8.015951 6.998698l26.997884 2.990722c6.00179 0 9.98942 4.007975 9.98942 10.009766v26.997884c0 5.004883-3.98763 9.989421-9.98942 9.989421l-26.997884 3.011067c-4.007976 0-6.998698 2.990723-8.015951 6.998698-1.993815 6.001791-4.984538 12.003581-7.995605 18.005371-1.993815 3.98763-1.993815 7.995606 0.996907 10.986328l17.008464 20.996094c4.007975 4.007975 2.990723 10.009766 0 14.017741zm-117.004395-142.008464c24.007162 0 44.006348 19.999187 44.006348 44.006348 0 25.004069-19.999186 43.986003-44.006348 43.986003-25.004069 0-44.006347-18.981934-44.006347-43.986003 0-24.007161 19.002278-44.006348 44.006347-44.006348z" transform="scale(.192)" stroke="#333" stroke-width="10" fill="#333"/>
  <path d="m472.005208 96.008301l6.998698 26.000976c0 2.990723-0.996907 4.984538-3.011067 5.981446l-24.983724 10.009765c-2.014161 0-3.011068 1.993815-3.011068 4.007976-0.996908 14.994303-4.007975 28.991699-11.006673 41.992187-0.996908 0.996908-0.996908 4.007975 0 5.004883l17.008463 20.996094c1.993815 1.993815 0.996908 4.007975 0 6.00179l-19.999186 19.999186c-0.996908 0.996908-4.007975 1.993815-6.00179 0l-20.996094-17.008463c-0.996908-0.996908-3.011068-1.993815-5.004883-0.996908-13.000488 6.998698-26.997884 11.006673-41.992187 12.003581-2.014161 0-4.007976 0.996907-4.007976 2.990722l-9.98942 25.004069c0 2.014161-3.011068 3.011068-5.004883 3.011068l-26.997884-6.998698c-2.01416-1.017252-4.007975-3.011067-3.011068-6.00179l4.007975-26.000977c0-2.01416-0.996907-4.007975-1.993815-5.004882-13.000488-7.995606-23.010254-18.005372-31.005859-31.00586-0.996908-0.996907-3.011068-1.993815-5.004883-1.993815l-26.000976 5.004883c-1.993816 0-5.004883-2.01416-6.001791-4.007975l-6.998698-26.000977c0-2.990723 0.996908-6.00179 3.011068-6.00179l24.983724-9.989421c2.01416 0 3.011068-2.01416 3.011068-4.007975 0.996907-14.994304 5.004882-28.991699 12.00358-41.992188 0.996908-0.996907 0-4.007975-0.996907-5.004882l-17.008464-20.996094c-0.996907-2.01416-0.996907-4.007975 0.996908-6.001791l19.002278-19.999186c1.993816-0.996907 5.004883-1.993815 6.998698 0l19.999187 16.988119c1.993815 1.017252 4.007975 1.017252 6.00179 0 12.003581-6.998698 26.000977-9.989421 40.99528-10.986328 2.01416 0 4.007975-0.996908 4.007975-3.011068l9.989421-25.004069c1.017252-1.993815 3.011067-2.990723 6.00179-2.990723l26.000977 6.998698c3.011067 0.996908 4.007975 3.011068 4.007975 6.00179l-5.004883 26.000977c0 1.993815 0.996908 4.007975 3.011068 5.004883 11.983236 7.995605 22.989909 17.985026 29.988607 29.988607 0.996907 2.01416 3.011067 3.011067 5.004882 3.011067l26.000977-5.004882c2.990723 0 5.004883 1.993815 6.00179 4.007975zm-112.996419 7.995605c19.999186 0 35.990397 15.991211 35.990397 35.990397 0 20.996094-15.991211 37.00765-35.990397 37.00765-21.016439 0-37.00765-16.011556-37.00765-37.00765 0-19.999186 15.991211-35.990397 37.00765-35.990397z" transform="scale(.192)" stroke="#9a0d7a" stroke-width="10" fill="#9a0d7a"/>
  <path fill="#272727" d="m33.023438 48c8.066406 0 14.785156 6.71875 14.785156 14.785156 0 8.253906-6.71875 14.976563-14.785156 14.976563-8.253907 0-14.976563-6.722657-14.976563-14.976563 0-8.066406 6.722656-14.785156 14.976563-14.785156zm0 9.023438c3.074218 0 5.761718 2.6875 5.761718 5.761718 0 3.261719-2.6875 5.757813-5.761718 5.757813-3.261719 0-5.757813-2.496094-5.757813-5.757813 0-3.074218 2.496094-5.761718 5.757813-5.761718z"/>
  <path fill="#5b0849" d="m68.929688 15.359375c6.335937 0 11.519531 5.183594 11.519531 11.519531 0 6.527344-5.183594 11.714844-11.519531 11.714844-6.53125 0-11.714844-5.1875-11.714844-11.714844 0-6.335937 5.183594-11.519531 11.714844-11.519531zm0 7.105469c2.496093 0 4.414062 1.917968 4.414062 4.414062s-1.917969 4.609375-4.414062 4.609375c-2.496094 0-4.609376-2.113281-4.609376-4.609375s2.113282-4.414062 4.609376-4.414062z"/>
 </g>
</svg>
