<?xml version="1.0" encoding="UTF-8" standalone="no"?>
<svg xmlns:rdf="http://www.w3.org/1999/02/22-rdf-syntax-ns#" xmlns="http://www.w3.org/2000/svg" version="1.1" xmlns:cc="http://creativecommons.org/ns#" xmlns:dc="http://purl.org/dc/elements/1.1/" viewBox="0 0 120 120">
 <g>
  <path d="m83.125 6c-12.348228 0.11217-23.931344 7.64762-28.625 19.875-1.976547 5.149077-2.501093 10.500645-1.75 15.59375 4.572507 0.443639 8.524069 2.33802 11.875 5.71875 3.891318 3.85702 5.843679 8.52458 5.84375 14-0.000017 1.291618-0.127206 2.546521-0.34375 3.75 0.712847 0.337738 1.438884 0.650132 2.1875 0.9375l7.09375-18.5c-4.185779-1.60893-7.15625-5.65388-7.15625-10.40625 0-6.16302 4.993235-11.15625 11.15625-11.15625 6.163013 0 11.15625 4.99323 11.15625 11.15625 0 4.75237-2.970473 8.79732-7.15625 10.40625l7.09375 18.5c8.19535-3.14594 14.6666-9.61714 17.8125-17.8125 6.13049-15.97046-1.84202-33.86951-17.8125-40-3.743078-1.43683-7.594929-2.09683-11.375-2.0625z" fill="#9a0e7b"/>
 </g>
 <g transform="translate(0,-932.36218)">
  <g fill="#333">
   <path d="m34.574286 1004.7608c-4.726506 0.1458-8.592299 2.0131-11.597392 5.6017h-5.864343c-2.392423 0-4.405552-0.5834-6.039396-1.7505-1.6338465-1.1962-2.4507695-2.9321-2.4507695-5.2079 0-10.29898 1.8088995-15.4485 5.4267045-15.44855 0.175043 0.00005 0.802328 0.30638 1.881842 0.91904 1.108673 0.61272 2.538287 1.24 4.288846 1.88183 1.750536 0.61274 3.486497 0.91908 5.207885 0.91904 1.954762 0.00004 3.894952-0.33548 5.820579-1.00656-0.14591 1.07956-0.218843 2.04235-0.218819 2.88841-0.000024 4.05549 1.181597 7.78999 3.544863 11.20349"/>
   <path d="m81.445254 1032.6382c-0.000072 3.501-1.064988 6.2582-3.194752 8.2715-2.129904 2.0421-4.959956 3.0634-8.490167 3.0634h-38.249512c-3.530295 0-6.360347-1.0213-8.490165-3.0634-2.129847-2.0133-3.194766-4.7705-3.194754-8.2715-0.000012-1.5463 0.04376-3.0488 0.131283-4.5077 0.116696-1.488 0.320923-3.078 0.612692-4.7702 0.320924-1.7214 0.714796-3.3115 1.181622-4.7703 0.466799-1.4587 1.094079-2.8737 1.881841-4.2449 0.787732-1.4004 1.692182-2.5822 2.713352-3.545 1.021136-0.9919 2.261108-1.7797 3.719918-2.3632 1.487944-0.5835 3.121791-0.8752 4.901539-0.8753 0.291732 0.0001 0.919011 0.321 1.881842 0.9629 0.962772 0.6127 2.02769 1.3129 3.194753 2.1006 1.167002 0.7586 2.727906 1.4588 4.682721 2.1006 1.954741 0.6127 3.92411 0.9191 5.908105 0.9191 1.983913 0 3.953278-0.3064 5.908106-0.9191 1.95473-0.6418 3.515634-1.342 4.682719-2.1006 1.16698-0.7877 2.231897-1.4879 3.194754-2.1006 0.962746-0.6419 1.590024-0.9628 1.881841-0.9629 1.779667 0.0001 3.398923 0.2918 4.857776 0.8753 1.487903 0.5835 2.742462 1.3713 3.763682 2.3632 1.021087 0.9628 1.925536 2.1446 2.713351 3.545 0.787677 1.3712 1.414957 2.7862 1.881842 4.2449 0.466741 1.4588 0.846027 3.0489 1.137857 4.7703 0.320861 1.6922 0.525093 3.2822 0.612693 4.7702 0.116636 1.4589 0.174984 2.9614 0.175064 4.5077"/>
   <path d="m33.348902 968.8308c2.188161 2.18824 3.282253 4.82866 3.282282 7.92123-0.000029 3.09269-1.094121 5.7331-3.282282 7.92125-2.188208 2.18822-4.828618 3.28232-7.921236 3.28227-3.092652 0.00005-5.733063-1.09405-7.921239-3.28227-2.188193-2.18815-3.282286-4.82856-3.28228-7.92125-0.000006-3.09257 1.094087-5.73299 3.28228-7.92123 2.188176-2.18813 4.828587-3.28221 7.921239-3.28229 3.092618 0.00008 5.733028 1.09416 7.921236 3.28229"/>
   <path d="m62.495556 981.69733c3.296811 3.26775 4.945243 7.22108 4.945303 11.85998-0.00006 4.63894-1.648492 8.60689-4.945303 11.90379-3.267745 3.2676-7.221065 4.9014-11.859973 4.9014-4.638996 0-8.606904-1.6338-11.90374-4.9014-3.267719-3.2969-4.901565-7.26485-4.901539-11.90379-0.000026-4.6389 1.63382-8.59223 4.901539-11.85998 3.296836-3.29681 7.264744-4.94524 11.90374-4.9453 4.638908 0.00006 8.592228 1.64849 11.859973 4.9453"/>
  </g>
 </g>
</svg>
