<?xml version="1.0" encoding="UTF-8" standalone="no"?>
<svg xmlns:rdf="http://www.w3.org/1999/02/22-rdf-syntax-ns#" xmlns="http://www.w3.org/2000/svg" version="1.1" xmlns:cc="http://creativecommons.org/ns#" xmlns:dc="http://purl.org/dc/elements/1.1/" viewBox="0 0 120 120">
 <g transform="translate(-253.55911,-70.243481)">
  <g transform="matrix(.96592583 -.25881905 .25881905 .96592583 0 0)">
   <path fill="#333" d="m207.00548 219.95026c-0.00001-1.6802 0.45005-2.95035 1.35016-3.81046 0.9001-0.86009 2.21025-1.29014 3.93047-1.29015 1.66018 0.00001 2.94034 0.44006 3.84045 1.32015 0.9201 0.88012 1.38016 2.14027 1.38017 3.78046-0.00001 1.58019-0.46007 2.83034-1.38017 3.75044-0.92012 0.90011-2.20027 1.35016-3.84045 1.35017-1.68021-0.00001-2.98037-0.44006-3.90047-1.32016-0.92011-0.90011-1.38017-2.16026-1.38016-3.78045"/>
   <g fill="#9a0e7b">
    <path d="m239.43935 224.84084c-10.44126 0-15.66187-5.73068-15.66187-17.19205 0-5.70066 1.42016-10.05118 4.26051-13.05156 2.84033-3.02033 6.91081-4.53051 12.21146-4.53054 3.88044 0.00003 7.36085 0.76012 10.44124 2.28027l-2.70032 7.08085c-1.4402-0.58005-2.78036-1.0501-4.02048-1.41017-1.24017-0.38002-2.48032-0.57004-3.72044-0.57007-4.76059 0.00003-7.14087 3.38043-7.14086 10.14121-0.00001 6.56079 2.38027 9.84118 7.14086 9.84118 1.76018 0 3.39038-0.23003 4.89058-0.69009 1.50015-0.48005 3.00033-1.22013 4.50054-2.22026v7.83093c-1.48021 0.94012-2.98038 1.59019-4.50054 1.95024-1.5002 0.36004-3.40043 0.54006-5.70068 0.54006"/>
    <path d="m275.80369 224.84084c-3.94049 0-7.03086-1.43017-9.27111-4.29051h-0.48005c0.32002 2.80033 0.48004 4.42052 0.48005 4.86058v13.59162h-9.15109v-48.30577h7.44089l1.29015 4.35052h0.42005c2.14024-3.32036 5.31062-4.98056 9.51114-4.98059 3.96044 0.00003 7.06081 1.53021 9.30111 4.59055 2.24023 3.06039 3.36037 7.31089 3.3604 12.75152-0.00003 3.58044-0.5301 6.69081-1.59019 9.33111-1.04016 2.64032-2.53033 4.65056-4.47053 6.03072-1.94026 1.38017-4.22053 2.07025-6.84082 2.07025m-2.70032-27.45328c-2.26029 0.00003-3.91049 0.70011-4.95059 2.10025-1.04014 1.38019-1.58021 3.67046-1.6202 6.87082v0.99012c-0.00001 3.60044 0.53005 6.18075 1.59019 7.74093 1.08012 1.56019 2.78032 2.34028 5.10061 2.34028 4.10047 0 6.15071-3.3804 6.15074-10.14122-0.00003-3.30037-0.51009-5.77066-1.53019-7.41088-1.00014-1.66017-2.58033-2.49027-4.74056-2.4903"/>
    <path d="m314.68833 224.84084c-3.94049 0-7.03085-1.43017-9.2711-4.29051h-0.48006c0.32002 2.80033 0.48004 4.42052 0.48006 4.86058v13.59162h-9.1511v-48.30577h7.44089l1.29016 4.35052h0.42005c2.14024-3.32036 5.31061-4.98056 9.51113-4.98059 3.96045 0.00003 7.06082 1.53021 9.30111 4.59055 2.24024 3.06039 3.36037 7.31089 3.3604 12.75152-0.00003 3.58044-0.53009 6.69081-1.59018 9.33111-1.04016 2.64032-2.53034 4.65056-4.47054 6.03072-1.94026 1.38017-4.22053 2.07025-6.84082 2.07025m-2.70032-27.45328c-2.26029 0.00003-3.91048 0.70011-4.95059 2.10025-1.04014 1.38019-1.5802 3.67046-1.62019 6.87082v0.99012c-0.00002 3.60044 0.53005 6.18075 1.59019 7.74093 1.08011 1.56019 2.78031 2.34028 5.10061 2.34028 4.10046 0 6.1507-3.3804 6.15073-10.14122-0.00003-3.30037-0.51009-5.77066-1.53018-7.41088-1.00015-1.66017-2.58033-2.49027-4.74057-2.4903"/>
   </g>
  </g>
 </g>
</svg>
