<?xml version="1.0" encoding="UTF-8" standalone="no"?>
<svg xmlns:rdf="http://www.w3.org/1999/02/22-rdf-syntax-ns#" xmlns="http://www.w3.org/2000/svg" version="1.1" xmlns:cc="http://creativecommons.org/ns#" xmlns:xlink="http://www.w3.org/1999/xlink" viewBox="0 0 120 120" xmlns:dc="http://purl.org/dc/elements/1.1/">
 <defs>
  <filter id="a" color-interpolation-filters="sRGB">
   <feGaussianBlur stdDeviation="0.074448528"/>
  </filter>
 </defs>
 <g transform="translate(0,-932.36218)">
  <g transform="matrix(1.0705707,0,0,1.0705707,-5.8737134,-68.2024)" stroke-width="2.80224371">
   <g transform="matrix(.83468178 0 0 .83468178 -120.33638 744.97445)" stroke-width="3.35725999">
    <g stroke-width="3.35725999" fill="none">
     <path d="m178.09311 231.84375c-1.37482 0-2.46875 1.12519-2.46875 2.5v18.15625h-18.1875c-1.37482 0-2.46875 1.12519-2.46875 2.5v13.8125c0 1.37482 1.09393 2.49999 2.46875 2.5h18.1875v18.15625c0 1.37482 1.09394 2.50001 2.46875 2.5h13.84375c1.37482 0 2.46875-1.1252 2.46875-2.5v-18.15625h18.1875c1.37482 0 2.46875-1.12518 2.46875-2.5v-13.8125c0-1.37482-1.09394-2.5-2.46875-2.5h-18.1875v-18.15625c0-1.37482-1.09393-2.5-2.46875-2.5h-13.84375z" stroke="#333" stroke-width="3.35725999"/>
     <path d="m179.64397 233.42187c-1.30265 0-2.33916 1.06613-2.33916 2.36876v18.26565h-18.42025c-1.30264 0-2.33914 1.06611-2.33914 2.36876v12.02491c0 1.30266 1.0365 2.36875 2.33914 2.36876h18.42025v18.32815c0 1.30264 1.03652 2.36877 2.33916 2.36876h11.92953c1.30265 0 2.33916-1.06613 2.33916-2.36876v-18.32815h18.3265c1.30264 0 2.33914-1.0661 2.33914-2.36876v-12.02491c0-1.30266-1.03651-2.36876-2.33914-2.36876h-18.3265v-18.26565c0-1.30264-1.03651-2.36876-2.33916-2.36876h-11.92953z"/>
    </g>
   </g>
   <g font-size="20.6103649px" font-family="Arial" fill="#9a0e7b">
    <text xml:space="preserve" y="968.92163" x="46.742359" line-height="125%"><tspan x="46.742359" y="968.92163">-</tspan></text>
    <text xml:space="preserve" y="968.92163" x="14.568689" line-height="125%"><tspan x="14.568689" y="968.92163">-</tspan></text>
    <text line-height="125%" transform="rotate(90)" y="-28.753492" x="976.23297" xml:space="preserve"><tspan y="-28.753492" x="976.23297">-</tspan></text>
    <text line-height="125%" transform="rotate(90)" y="-28.753492" x="944.05939" xml:space="preserve"><tspan y="-28.753492" x="944.05939">-</tspan></text>
   </g>
  </g>
  <g transform="matrix(1.0705707,0,0,1.0705707,-37.976143,-74.055253)">
   <path d="m426.65442 122.51838a7.4448528 7.4448528 0 1 1 -14.88971 0 7.4448528 7.4448528 0 1 1 14.88971 0z" transform="matrix(1.2556216,0,0,1.2556216,-452.2363,885.15789)" stroke="#333" stroke-width="2.23175812" fill="none"/>
   <path d="m426.65442 122.51838a7.4448528 7.4448528 0 1 1 -14.88971 0 7.4448528 7.4448528 0 1 1 14.88971 0z" transform="matrix(1.2556216,0,0,1.2556216,-473.60969,864.1027)" stroke="#333" stroke-width="2.23175812" fill="none"/>
   <text xml:space="preserve" font-size="12.5743284px" y="1022.4398" x="48.596081" font-family="Arial" line-height="125%" fill="#9a0e7b"><tspan x="48.596081" y="1022.4398">Y</tspan></text>
   <text xml:space="preserve" font-size="12.5743284px" y="1043.4951" x="69.812912" font-family="Arial" line-height="125%" fill="#9a0e7b"><tspan x="69.812912" y="1043.4951">B</tspan></text>
  </g>
  <g transform="matrix(.83468178 0 0 .83468178 -46.489901 850.75037)" stroke-width="3.59418416">
   <g fill="none">
    <path d="m426.65442 122.51838c0 4.11168-3.33318 7.44485-7.44486 7.44485-4.11167 0-7.44485-3.33317-7.44485-7.44485s3.33318-7.44485 7.44485-7.44485c4.11168 0 7.44486 3.33317 7.44486 7.44485z" transform="matrix(4.8814936,0,0,4.8814936,-1886.7193,-415.97419)" stroke="#333" stroke-width=".73628777"/>
    <path d="m426.65442 122.51838c0 4.11168-3.33318 7.44485-7.44486 7.44485-4.11167 0-7.44485-3.33317-7.44485-7.44485s3.33318-7.44485 7.44485-7.44485c4.11168 0 7.44486 3.33317 7.44486 7.44485z" transform="matrix(4.4815497,0,0,4.4815497,-1718.992,-366.90679)" filter="url(#a)"/>
    <g transform="matrix(-.64178832 0 0 -.64178832 163.50021 299.86665)" stroke="#333" stroke-width="5.60026407">
     <path d="m426.65442 122.51838c0 4.11168-3.33318 7.44485-7.44486 7.44485-4.11167 0-7.44485-3.33317-7.44485-7.44485s3.33318-7.44485 7.44485-7.44485c4.11168 0 7.44486 3.33317 7.44486 7.44485z" transform="matrix(4.5597114,0,0,4.5597114,-1905.4746,-375.14845)" stroke="#333" stroke-width="1.2282058" fill="none"/>
    </g>
   </g>
   <path d="m426.65442 122.51838c0 4.11168-3.33318 7.44485-7.44486 7.44485-4.11167 0-7.44485-3.33317-7.44485-7.44485s3.33318-7.44485 7.44485-7.44485c4.11168 0 7.44486 3.33317 7.44486 7.44485z" transform="matrix(2.444602,0,0,2.444602,-865.15108,-117.41018)" fill="#9a0e7b"/>
  </g>
 </g>
</svg>
